<svg width="528" height="528" viewBox="0 0 528 528" fill="none" xmlns="http://www.w3.org/2000/svg">
<circle cx="264" cy="264" r="264" fill="#FCFCFC"/>
<circle cx="264" cy="264" r="256" fill="#643482"/>
<circle cx="264" cy="264" r="192" fill="#7B8CB7"/>
<path d="M103.41 94.5304L115.254 109.412L112.709 111.437L100.865 96.5555L103.41 94.5304ZM113.175 86.7585L112.906 100.901L109.344 103.736L107.185 101.815L110.101 99.4942L110.08 89.2214L113.175 86.7585ZM122.282 103.818L111.444 101.436L111.614 98.2901L125.514 101.246L122.282 103.818Z" fill="white"/>
<path d="M128.335 76.5028L138.615 92.5043L135.865 94.2716L125.584 78.2701L128.335 76.5028ZM133.703 73.0537L135.128 75.272L121.744 83.871L120.319 81.6526L133.703 73.0537Z" fill="white"/>
<path d="M146.395 76.9034L146.213 76.5425C145.594 75.3187 145.199 74.094 145.026 72.8684C144.848 71.6323 144.898 70.4582 145.176 69.3459C145.45 68.2233 145.954 67.2071 146.689 66.2973C147.419 65.3771 148.375 64.6185 149.557 64.0213C150.749 63.4189 151.932 63.0969 153.106 63.0553C154.285 62.998 155.407 63.1925 156.473 63.6388C157.544 64.0693 158.524 64.7229 159.413 65.5997C160.297 66.466 161.048 67.511 161.667 68.7348L161.849 69.0956C162.467 70.3194 162.863 71.5441 163.036 72.7698C163.209 73.9954 163.153 75.1722 162.87 76.3001C162.591 77.4124 162.087 78.4286 161.357 79.3487C160.633 80.2532 159.674 81.0066 158.482 81.6091C157.289 82.2115 156.109 82.5387 154.94 82.5907C153.767 82.6323 152.644 82.4379 151.573 82.0073C150.507 81.5611 149.533 80.9048 148.649 80.0385C147.764 79.1722 147.013 78.1272 146.395 76.9034ZM149.115 75.0761L149.298 75.437C149.726 76.2842 150.229 77.0341 150.808 77.6868C151.382 78.3291 152.013 78.8374 152.701 79.2119C153.4 79.5811 154.137 79.7798 154.913 79.808C155.683 79.8257 156.471 79.6312 157.277 79.2243C158.072 78.8226 158.685 78.3091 159.118 77.6836C159.555 77.0424 159.827 76.3338 159.934 75.5577C160.041 74.7816 160.006 73.972 159.83 73.129C159.659 72.2702 159.359 71.4172 158.931 70.57L158.749 70.2091C158.326 69.3724 157.822 68.6355 157.238 67.9986C156.659 67.3459 156.02 66.8349 155.321 66.4657C154.628 66.0808 153.893 65.8742 153.117 65.846C152.352 65.8125 151.567 65.9992 150.761 66.4061C149.966 66.8078 149.35 67.3292 148.913 67.9704C148.486 68.6063 148.216 69.3202 148.104 70.112C147.997 70.8881 148.035 71.7029 148.216 72.5564C148.393 73.3994 148.692 74.2393 149.115 75.0761Z" fill="white"/>
<path d="M183.749 50.0766L189.805 55.4283L191.745 47.5542L195.383 46.4068L192.272 57.2306L201.289 64.4872L197.702 65.6188L191.364 60.1346L189.32 68.2627L185.715 69.3996L188.92 58.2882L180.178 51.2029L183.749 50.0766Z" fill="white"/>
<path d="M206.369 53.5313L206.287 53.1353C206.012 51.7922 205.952 50.5066 206.106 49.2785C206.259 48.039 206.615 46.9192 207.176 45.919C207.734 44.9073 208.487 44.059 209.435 43.3741C210.381 42.6777 211.502 42.1964 212.8 41.9303C214.108 41.6619 215.335 41.6617 216.478 41.9295C217.631 42.1836 218.663 42.6658 219.574 43.3761C220.494 44.0725 221.269 44.9605 221.897 46.0399C222.523 47.1078 222.973 48.3133 223.249 49.6564L223.33 50.0525C223.605 51.3956 223.666 52.6812 223.511 53.9092C223.356 55.1373 222.994 56.2583 222.424 57.2723C221.864 58.2725 221.111 59.1208 220.165 59.8172C219.228 60.4998 218.106 60.9753 216.797 61.2437C215.488 61.5122 214.263 61.5182 213.122 61.2618C211.978 60.9939 210.946 60.5117 210.026 59.8152C209.115 59.105 208.346 58.2158 207.72 57.1479C207.095 56.08 206.644 54.8745 206.369 53.5313ZM209.473 52.4819L209.554 52.878C209.745 53.8078 210.034 54.6636 210.422 55.4455C210.807 56.2158 211.283 56.8719 211.848 57.4138C212.425 57.9534 213.085 58.3386 213.826 58.5693C214.565 58.7886 215.376 58.8077 216.26 58.6264C217.132 58.4474 217.859 58.1129 218.441 57.6228C219.031 57.1189 219.48 56.5065 219.787 55.7856C220.093 55.0648 220.272 54.2745 220.323 53.4147C220.383 52.541 220.318 51.6393 220.127 50.7094L220.046 50.3134C219.857 49.395 219.565 48.5518 219.168 47.7838C218.781 47.002 218.298 46.3413 217.721 45.8018C217.153 45.2484 216.498 44.8563 215.757 44.6255C215.027 44.3924 214.22 44.3664 213.337 44.5477C212.464 44.7267 211.733 45.0681 211.142 45.572C210.563 46.0736 210.116 46.6917 209.8 47.4264C209.493 48.1473 209.315 48.9433 209.267 49.8146C209.216 50.6744 209.285 51.5635 209.473 52.4819Z" fill="white"/>
<path d="M246.754 37.5603L248.555 56.4944L245.317 56.8023L243.517 37.8682L246.754 37.5603ZM246.479 46.3622L246.732 49.0221C246.102 49.3292 245.458 49.6141 244.8 49.8768C244.153 50.1267 243.461 50.3455 242.726 50.5332C242.001 50.7081 241.207 50.8366 240.343 50.9187C238.85 51.0607 237.531 50.9272 236.385 50.5182C235.239 50.0976 234.318 49.3905 233.623 48.3972C232.927 47.3922 232.503 46.0847 232.35 44.4748L231.824 38.945L235.061 38.6371L235.587 44.1669C235.687 45.2168 235.925 46.0534 236.303 46.6768C236.68 47.3001 237.186 47.7404 237.823 47.9977C238.459 48.2434 239.214 48.3246 240.089 48.2413C240.929 48.1614 241.711 48.034 242.436 47.8591C243.172 47.6715 243.869 47.4521 244.528 47.2011C245.198 46.949 245.849 46.6694 246.479 46.3622Z" fill="white"/>
<path d="M266.718 56.459C265.394 56.445 264.195 56.2097 263.122 55.7531C262.06 55.2848 261.147 54.6365 260.382 53.8081C259.629 52.9798 259.054 52.001 258.655 50.8718C258.257 49.7425 258.065 48.51 258.079 47.1741L258.087 46.4358C258.103 44.8891 258.346 43.5146 258.816 42.3124C259.286 41.0986 259.918 40.0739 260.712 39.2385C261.506 38.4031 262.403 37.7738 263.403 37.3507C264.404 36.9277 265.438 36.7217 266.504 36.733C267.863 36.7473 269.033 36.994 270.012 37.4731C271.003 37.9523 271.81 38.6171 272.434 39.4675C273.058 40.3061 273.517 41.2954 273.809 42.4353C274.102 43.5634 274.242 44.7954 274.228 46.1313L274.212 47.5902L260.01 47.4405L260.038 44.7864L270.988 44.9018L270.991 44.6557C270.953 43.8115 270.786 42.9894 270.49 42.1893C270.205 41.3894 269.743 40.7283 269.104 40.2059C268.465 39.6835 267.589 39.4164 266.476 39.4047C265.737 39.3969 265.056 39.548 264.432 39.8578C263.807 40.1559 263.27 40.6073 262.818 41.212C262.366 41.8166 262.013 42.5571 261.757 43.4333C261.502 44.3096 261.368 45.3219 261.356 46.4703L261.348 47.2085C261.339 48.1108 261.453 48.9617 261.691 49.7611C261.94 50.5489 262.302 51.2442 262.776 51.8469C263.262 52.4497 263.849 52.9247 264.537 53.2718C265.236 53.619 266.031 53.7973 266.922 53.8067C268.07 53.8188 269.045 53.5947 269.847 53.1343C270.649 52.674 271.352 52.0544 271.958 51.2756L273.911 52.8607C273.494 53.4775 272.966 54.0637 272.327 54.6195C271.689 55.1753 270.905 55.6241 269.975 55.9659C269.058 56.3078 267.972 56.4722 266.718 56.459Z" fill="white"/>
<path d="M293.275 38.7826L291.155 57.6836L287.906 57.3192L290.026 38.4182L293.275 38.7826ZM299.616 39.4938L299.322 42.1141L283.513 40.341L283.807 37.7208L299.616 39.4938Z" fill="white"/>
<path d="M327.343 62.4603C328.088 62.6664 328.819 62.7045 329.536 62.5744C330.253 62.4443 330.888 62.17 331.442 61.7515C331.998 61.3218 332.4 60.7702 332.647 60.0969L335.629 60.9213C335.272 61.99 334.626 62.8994 333.689 63.6495C332.767 64.3915 331.683 64.9006 330.44 65.1768C329.199 65.4418 327.93 65.3947 326.631 65.0356C325.253 64.6546 324.117 64.0792 323.223 63.3094C322.341 62.5426 321.678 61.642 321.235 60.6075C320.803 59.5762 320.569 58.4658 320.533 57.2765C320.511 56.0791 320.67 54.8647 321.011 53.6336L321.208 52.922C321.548 51.6908 322.033 50.5727 322.664 49.5677C323.309 48.5544 324.081 47.7164 324.982 47.0535C325.894 46.3937 326.925 45.9615 328.076 45.7569C329.238 45.5554 330.508 45.6451 331.886 46.0261C333.321 46.4227 334.493 47.063 335.404 47.947C336.318 48.8197 336.941 49.843 337.273 51.0168C337.619 52.1826 337.646 53.4057 337.352 54.6864L334.371 53.862C334.523 53.0896 334.498 52.3469 334.294 51.634C334.101 50.9241 333.738 50.301 333.205 49.7647C332.687 49.2202 332.01 48.8324 331.174 48.6013C330.214 48.3359 329.354 48.3047 328.592 48.5076C327.845 48.7023 327.191 49.0685 326.629 49.6061C326.081 50.1356 325.615 50.7666 325.23 51.4991C324.86 52.2235 324.564 52.9866 324.342 53.7886L324.145 54.5001C323.924 55.3021 323.784 56.1146 323.727 56.9377C323.669 57.7608 323.74 58.5401 323.937 59.2757C324.147 60.0143 324.52 60.6647 325.058 61.2267C325.61 61.7806 326.371 62.1918 327.343 62.4603Z" fill="white"/>
<path d="M356.125 54.5031L349.269 72.244L346.219 71.0654L353.075 53.3246L356.125 54.5031ZM362.077 56.8033L361.126 59.2627L346.288 53.5283L347.238 51.0688L362.077 56.8033Z" fill="white"/>
<path d="M374.465 80.1929L378.899 71.4632C379.238 70.7945 379.397 70.1456 379.375 69.5166C379.368 68.8824 379.168 68.2942 378.773 67.7519C378.378 67.2096 377.789 66.7395 377.005 66.3415C376.274 65.97 375.567 65.7691 374.886 65.7386C374.215 65.7134 373.62 65.825 373.1 66.0733C372.59 66.3269 372.215 66.6888 371.976 67.1589L369.077 65.6864C369.385 65.0804 369.847 64.5592 370.463 64.1228C371.078 63.6865 371.801 63.3765 372.63 63.1931C373.475 63.0045 374.382 62.9787 375.351 63.1158C376.335 63.2478 377.339 63.5738 378.363 64.0938C379.596 64.72 380.577 65.4808 381.305 66.3763C382.043 67.2771 382.464 68.286 382.567 69.403C382.686 70.5148 382.424 71.7028 381.782 72.9671L377.771 80.8662C377.484 81.4304 377.226 82.055 376.996 82.7402C376.777 83.4306 376.65 84.0561 376.615 84.6166L376.488 84.8674L373.463 83.3312C373.486 82.9225 373.597 82.4201 373.795 81.8239C373.998 81.2172 374.221 80.6735 374.465 80.1929ZM378.716 73.0658L377.712 75.1192L374.782 73.6307C373.956 73.2115 373.185 72.9053 372.468 72.7121C371.757 72.5085 371.115 72.4259 370.544 72.4642C369.972 72.5025 369.471 72.6619 369.039 72.9422C368.613 73.212 368.267 73.6082 368.002 74.1306C367.731 74.6634 367.605 75.2103 367.622 75.7712C367.64 76.3321 367.822 76.8652 368.17 77.3705C368.534 77.8707 369.071 78.3012 369.782 78.662C370.67 79.1131 371.549 79.323 372.419 79.2917C373.289 79.2605 374.061 79.0741 374.734 78.7324C375.417 78.396 375.905 77.9798 376.196 77.4838L376.726 79.5074C376.43 79.9091 375.984 80.2942 375.39 80.6625C374.795 81.0309 374.102 81.3227 373.309 81.5378C372.532 81.7478 371.69 81.8264 370.784 81.7735C369.894 81.7155 368.988 81.453 368.069 80.9861C366.92 80.4024 366.026 79.6657 365.386 78.7759C364.758 77.8915 364.394 76.9511 364.296 75.9547C364.213 74.9532 364.41 73.9823 364.888 73.0419C365.35 72.1329 365.933 71.4238 366.639 70.9146C367.349 70.395 368.156 70.0751 369.058 69.955C369.966 69.8244 370.95 69.8778 372.013 70.115C373.075 70.3523 374.186 70.7654 375.346 71.3544L378.716 73.0658Z" fill="white"/>
<path d="M401.513 77.833L391.232 93.8346L388.481 92.0673L398.762 76.0657L401.513 77.833ZM406.881 81.2821L405.456 83.5004L392.072 74.9015L393.497 72.6831L406.881 81.2821Z" fill="white"/>
<path d="M413.38 94.1433L417.85 97.7009C419.051 98.6569 419.897 99.6741 420.386 100.753C420.883 101.822 421.05 102.891 420.888 103.961C420.743 105.028 420.301 106.025 419.564 106.951C419.017 107.638 418.383 108.19 417.663 108.605C416.951 109.012 416.177 109.25 415.343 109.32C414.517 109.397 413.654 109.286 412.753 108.988C411.868 108.689 410.977 108.181 410.078 107.466L403.751 102.431L415.595 87.5491L418.14 89.5742L407.96 102.365L411.742 105.376C412.476 105.959 413.168 106.293 413.82 106.378C414.472 106.462 415.062 106.37 415.59 106.102C416.118 105.833 416.565 105.47 416.93 105.011C417.287 104.562 417.541 104.045 417.692 103.461C417.842 102.877 417.81 102.267 417.596 101.633C417.39 100.989 416.92 100.375 416.186 99.7915L411.716 96.2339L413.38 94.1433Z" fill="white"/>
<path d="M125.152 423.683L113.308 438.564L110.764 436.539L122.608 421.657L125.152 423.683ZM134.918 431.454L121.075 434.366L117.513 431.531L118.901 428.997L121.817 431.317L131.823 428.992L134.918 431.454ZM120.337 444.158L120.226 433.062L123.33 432.521L123.569 446.73L120.337 444.158Z" fill="white"/>
<path d="M147.543 439.894L137.262 455.896L134.511 454.129L144.792 438.127L147.543 439.894ZM152.911 443.343L151.486 445.562L138.102 436.963L139.527 434.745L152.911 443.343Z" fill="white"/>
<path d="M154.073 455.266L154.255 454.905C154.873 453.682 155.625 452.637 156.509 451.77C157.398 450.894 158.373 450.237 159.433 449.801C160.499 449.355 161.616 449.158 162.785 449.21C163.959 449.252 165.136 449.571 166.318 450.168C167.511 450.771 168.472 451.532 169.202 452.452C169.947 453.367 170.457 454.386 170.73 455.509C171.019 456.626 171.074 457.803 170.896 459.039C170.723 460.265 170.328 461.489 169.709 462.713L169.527 463.074C168.909 464.298 168.157 465.343 167.273 466.209C166.389 467.075 165.409 467.729 164.333 468.17C163.273 468.606 162.155 468.803 160.982 468.761C159.824 468.715 158.648 468.39 157.456 467.788C156.264 467.185 155.3 466.429 154.565 465.519C153.835 464.599 153.325 463.58 153.037 462.463C152.764 461.34 152.713 460.166 152.886 458.94C153.059 457.715 153.455 456.49 154.073 455.266ZM157.158 456.372L156.975 456.733C156.547 457.58 156.242 458.43 156.061 459.284C155.884 460.127 155.849 460.936 155.956 461.713C156.074 462.494 156.351 463.205 156.789 463.846C157.231 464.477 157.855 464.996 158.661 465.403C159.456 465.804 160.233 465.994 160.993 465.971C161.769 465.943 162.501 465.741 163.189 465.367C163.877 464.992 164.508 464.484 165.082 463.842C165.672 463.194 166.181 462.447 166.609 461.6L166.791 461.239C167.214 460.402 167.508 459.56 167.674 458.711C167.856 457.858 167.888 457.04 167.771 456.259C167.669 455.472 167.4 454.758 166.962 454.117C166.535 453.481 165.919 452.96 165.113 452.553C164.319 452.151 163.533 451.965 162.757 451.993C161.992 452.026 161.258 452.233 160.554 452.613C159.866 452.987 159.232 453.501 158.653 454.153C158.079 454.796 157.58 455.535 157.158 456.372Z" fill="white"/>
<path d="M195.564 462.856L197.454 470.714L203.561 465.378L207.198 466.525L198.44 473.605L201.661 484.722L198.074 483.59L196.03 475.462L189.692 480.946L186.088 479.81L195.087 472.548L191.994 461.729L195.564 462.856Z" fill="white"/>
<path d="M211.197 477.646L211.278 477.25C211.554 475.907 212.004 474.701 212.63 473.633C213.258 472.554 214.027 471.665 214.935 470.966C215.847 470.256 216.873 469.773 218.014 469.516C219.158 469.248 220.378 469.247 221.675 469.513C222.984 469.782 224.111 470.264 225.057 470.961C226.017 471.648 226.776 472.497 227.334 473.509C227.906 474.512 228.268 475.633 228.42 476.872C228.575 478.1 228.515 479.386 228.239 480.729L228.158 481.125C227.883 482.468 227.432 483.674 226.806 484.742C226.181 485.809 225.406 486.697 224.483 487.405C223.575 488.104 222.548 488.587 221.405 488.855C220.275 489.114 219.056 489.109 217.747 488.841C216.438 488.572 215.31 488.096 214.362 487.411C213.416 486.714 212.657 485.865 212.085 484.862C211.527 483.851 211.171 482.731 211.016 481.503C210.861 480.275 210.921 478.989 211.197 477.646ZM214.464 477.903L214.382 478.299C214.192 479.229 214.121 480.13 214.169 481.001C214.22 481.861 214.399 482.651 214.706 483.372C215.024 484.095 215.478 484.709 216.069 485.213C216.662 485.705 217.4 486.042 218.284 486.223C219.156 486.402 219.956 486.381 220.684 486.159C221.425 485.929 222.078 485.542 222.644 485C223.21 484.458 223.685 483.802 224.071 483.032C224.47 482.253 224.765 481.398 224.955 480.468L225.037 480.072C225.225 479.154 225.288 478.263 225.225 477.401C225.177 476.53 224.993 475.733 224.675 475.009C224.371 474.277 223.923 473.659 223.333 473.155C222.754 472.653 222.022 472.312 221.139 472.131C220.266 471.952 219.459 471.978 218.718 472.209C217.988 472.442 217.334 472.834 216.754 473.385C216.188 473.927 215.712 474.589 215.324 475.37C214.939 476.141 214.652 476.985 214.464 477.903Z" fill="white"/>
<path d="M252.212 474.082L250.411 493.016L247.174 492.708L248.975 473.774L252.212 474.082ZM250.282 482.674L250.029 485.334C249.353 485.517 248.667 485.675 247.971 485.809C247.289 485.933 246.568 486.017 245.811 486.063C245.066 486.098 244.262 486.074 243.398 485.992C241.905 485.85 240.634 485.47 239.587 484.853C238.54 484.223 237.769 483.356 237.274 482.249C236.78 481.131 236.61 479.767 236.763 478.157L237.289 472.627L240.526 472.935L240 478.465C239.9 479.515 239.977 480.381 240.229 481.065C240.482 481.748 240.897 482.276 241.474 482.648C242.052 483.01 242.778 483.232 243.653 483.315C244.493 483.395 245.285 483.417 246.03 483.382C246.788 483.336 247.514 483.252 248.208 483.13C248.914 483.009 249.606 482.857 250.282 482.674Z" fill="white"/>
<path d="M269.339 493.786C268.015 493.8 266.812 493.59 265.729 493.156C264.658 492.711 263.731 492.082 262.949 491.27C262.179 490.457 261.583 489.491 261.161 488.37C260.739 487.25 260.521 486.021 260.507 484.686L260.499 483.947C260.483 482.401 260.697 481.021 261.141 479.81C261.585 478.586 262.195 477.548 262.971 476.696C263.748 475.844 264.632 475.196 265.623 474.752C266.614 474.308 267.643 474.081 268.71 474.069C270.069 474.055 271.243 474.277 272.233 474.735C273.234 475.194 274.055 475.841 274.697 476.678C275.338 477.504 275.817 478.483 276.134 479.616C276.45 480.738 276.616 481.967 276.63 483.303L276.645 484.762L262.443 484.911L262.415 482.257L273.365 482.142L273.363 481.896C273.307 481.052 273.123 480.234 272.81 479.44C272.508 478.647 272.033 477.995 271.383 477.487C270.733 476.978 269.851 476.729 268.738 476.741C268 476.749 267.322 476.914 266.704 477.237C266.086 477.548 265.558 478.011 265.119 478.625C264.68 479.239 264.342 479.987 264.105 480.868C263.869 481.75 263.756 482.765 263.768 483.913L263.776 484.651C263.786 485.553 263.918 486.402 264.172 487.196C264.438 487.978 264.814 488.666 265.301 489.258C265.8 489.851 266.396 490.313 267.091 490.646C267.798 490.978 268.597 491.14 269.487 491.13C270.636 491.118 271.606 490.874 272.398 490.397C273.189 489.919 273.88 489.285 274.469 488.494L276.455 490.037C276.051 490.663 275.536 491.26 274.909 491.829C274.282 492.398 273.508 492.864 272.586 493.225C271.675 493.586 270.593 493.773 269.339 493.786Z" fill="white"/>
<path d="M292.376 472.913L294.496 491.814L291.247 492.179L289.127 473.278L292.376 472.913ZM298.717 472.202L299.011 474.822L283.202 476.595L282.908 473.975L298.717 472.202Z" fill="white"/>
<path d="M330.563 482.349C331.308 482.143 331.955 481.8 332.504 481.32C333.052 480.84 333.456 480.279 333.716 479.636C333.972 478.981 334.034 478.301 333.9 477.597L336.882 476.772C337.125 477.872 337.037 478.985 336.619 480.11C336.208 481.22 335.541 482.213 334.616 483.089C333.687 483.954 332.574 484.565 331.275 484.924C329.897 485.305 328.627 485.395 327.465 485.194C326.314 484.989 325.283 484.557 324.371 483.897C323.47 483.234 322.699 482.402 322.057 481.4C321.424 480.383 320.937 479.26 320.596 478.029L320.399 477.317C320.059 476.086 319.901 474.877 319.926 473.691C319.959 472.49 320.191 471.374 320.623 470.343C321.067 469.309 321.73 468.408 322.612 467.641C323.506 466.871 324.641 466.296 326.019 465.915C327.454 465.518 328.789 465.465 330.024 465.756C331.257 466.035 332.317 466.593 333.204 467.43C334.1 468.252 334.752 469.288 335.158 470.538L332.176 471.362C331.91 470.621 331.507 469.997 330.965 469.49C330.435 468.98 329.804 468.632 329.072 468.445C328.347 468.244 327.567 468.259 326.731 468.49C325.771 468.756 325.017 469.171 324.468 469.736C323.927 470.287 323.554 470.937 323.348 471.687C323.15 472.423 323.074 473.204 323.12 474.03C323.174 474.842 323.312 475.648 323.534 476.45L323.731 477.162C323.952 477.964 324.25 478.733 324.624 479.468C324.997 480.204 325.458 480.837 326.005 481.366C326.564 481.892 327.219 482.259 327.969 482.465C328.727 482.656 329.592 482.618 330.563 482.349Z" fill="white"/>
<path d="M347.546 459.074L354.402 476.815L351.353 477.993L344.497 460.252L347.546 459.074ZM353.498 456.774L354.449 459.233L339.61 464.968L338.66 462.508L353.498 456.774Z" fill="white"/>
<path d="M377.319 462.77L372.885 454.041C372.545 453.372 372.115 452.861 371.594 452.508C371.078 452.139 370.485 451.954 369.814 451.953C369.143 451.952 368.416 452.151 367.632 452.549C366.901 452.92 366.322 453.372 365.896 453.904C365.48 454.43 365.218 454.977 365.112 455.544C365.016 456.105 365.087 456.621 365.326 457.091L362.426 458.564C362.119 457.958 361.97 457.277 361.981 456.523C361.992 455.768 362.168 455.001 362.509 454.224C362.855 453.43 363.37 452.683 364.052 451.981C364.739 451.264 365.595 450.646 366.619 450.126C367.852 449.5 369.044 449.157 370.197 449.097C371.36 449.032 372.423 449.287 373.386 449.863C374.353 450.423 375.158 451.335 375.8 452.599L379.812 460.499C380.099 461.063 380.451 461.64 380.869 462.229C381.297 462.814 381.727 463.285 382.159 463.644L382.286 463.895L379.261 465.431C378.945 465.171 378.605 464.785 378.24 464.274C377.87 463.752 377.563 463.251 377.319 462.77ZM374.071 455.134L375.137 457.155L372.206 458.644C371.381 459.063 370.679 459.505 370.1 459.97C369.516 460.424 369.071 460.893 368.765 461.378C368.458 461.862 368.291 462.361 368.263 462.874C368.23 463.378 368.345 463.891 368.611 464.413C368.881 464.946 369.248 465.371 369.711 465.687C370.175 466.004 370.713 466.171 371.326 466.188C371.945 466.19 372.609 466.01 373.32 465.649C374.208 465.198 374.896 464.612 375.384 463.891C375.872 463.17 376.177 462.437 376.298 461.692C376.429 460.942 376.381 460.303 376.152 459.775L378.099 460.541C378.248 461.017 378.297 461.603 378.243 462.301C378.19 462.998 378.016 463.73 377.723 464.497C377.434 465.249 377.001 465.975 376.423 466.675C375.851 467.36 375.105 467.936 374.186 468.403C373.037 468.987 371.914 469.274 370.819 469.265C369.734 469.251 368.76 468.99 367.897 468.482C367.04 467.958 366.372 467.226 365.895 466.285C365.433 465.376 365.205 464.487 365.21 463.617C365.209 462.736 365.427 461.896 365.862 461.097C366.292 460.287 366.916 459.523 367.734 458.806C368.553 458.088 369.542 457.434 370.702 456.845L374.071 455.134Z" fill="white"/>
<path d="M387.381 438.564L397.662 454.566L394.911 456.333L384.631 440.331L387.381 438.564ZM392.75 435.115L394.175 437.333L380.791 445.932L379.366 443.714L392.75 435.115Z" fill="white"/>
<path d="M404.858 434.303L409.328 430.745C410.529 429.789 411.71 429.194 412.871 428.959C414.025 428.714 415.104 428.791 416.11 429.189C417.117 429.57 417.99 430.224 418.727 431.15C419.274 431.838 419.669 432.579 419.913 433.374C420.149 434.16 420.207 434.967 420.088 435.796C419.978 436.617 419.676 437.434 419.184 438.245C418.693 439.04 417.999 439.795 417.1 440.51L410.773 445.546L398.929 430.664L401.474 428.639L411.654 441.43L415.436 438.42C416.17 437.836 416.651 437.236 416.879 436.62C417.108 436.003 417.15 435.408 417.007 434.833C416.864 434.258 416.61 433.741 416.245 433.283C415.888 432.833 415.441 432.47 414.906 432.192C414.37 431.914 413.769 431.809 413.103 431.875C412.429 431.931 411.725 432.252 410.992 432.836L406.522 436.393L404.858 434.303Z" fill="white"/>
<circle cx="264" cy="264" r="184" fill="#55316B"/>
<g filter="url(#filter0_d_5_131)">
<path d="M17.1875 231.5H23.0312L37.9375 268.594L52.8125 231.5H58.6875L40.1875 277H35.625L17.1875 231.5ZM15.2812 231.5H20.4375L21.2812 259.25V277H15.2812V231.5ZM55.4062 231.5H60.5625V277H54.5625V259.25L55.4062 231.5ZM77.4375 266.562L99.8438 231.5H105.875V277H99.8438V241.906L77.4375 277H71.4375V231.5H77.4375V266.562ZM146.656 231.5V236.438H125.844V231.5H146.656ZM151.844 231.5V277H145.812V231.5H151.844ZM123.781 231.5H129.781L128.75 253.781C128.604 256.99 128.354 259.854 128 262.375C127.667 264.875 127.188 267.052 126.562 268.906C125.938 270.74 125.125 272.26 124.125 273.469C123.125 274.656 121.896 275.542 120.438 276.125C119 276.708 117.271 277 115.25 277H113.625V272.094L114.875 272C116.042 271.917 117.042 271.656 117.875 271.219C118.729 270.76 119.448 270.073 120.031 269.156C120.635 268.24 121.125 267.052 121.5 265.594C121.875 264.135 122.167 262.354 122.375 260.25C122.604 258.125 122.781 255.646 122.906 252.812L123.781 231.5ZM192.531 231.5V236.438H171.719V231.5H192.531ZM197.719 231.5V277H191.688V231.5H197.719ZM169.656 231.5H175.656L174.625 253.781C174.479 256.99 174.229 259.854 173.875 262.375C173.542 264.875 173.062 267.052 172.438 268.906C171.812 270.74 171 272.26 170 273.469C169 274.656 167.771 275.542 166.312 276.125C164.875 276.708 163.146 277 161.125 277H159.5V272.094L160.75 272C161.917 271.917 162.917 271.656 163.75 271.219C164.604 270.76 165.323 270.073 165.906 269.156C166.51 268.24 167 267.052 167.375 265.594C167.75 264.135 168.042 262.354 168.25 260.25C168.479 258.125 168.656 255.646 168.781 252.812L169.656 231.5ZM214.875 266.562L237.281 231.5H243.312V277H237.281V241.906L214.875 277H208.875V231.5H214.875V266.562ZM289.312 252.812V255.688C289.312 259.104 288.885 262.167 288.031 264.875C287.177 267.583 285.948 269.885 284.344 271.781C282.74 273.677 280.812 275.125 278.562 276.125C276.333 277.125 273.833 277.625 271.062 277.625C268.375 277.625 265.906 277.125 263.656 276.125C261.427 275.125 259.49 273.677 257.844 271.781C256.219 269.885 254.958 267.583 254.062 264.875C253.167 262.167 252.719 259.104 252.719 255.688V252.812C252.719 249.396 253.156 246.344 254.031 243.656C254.927 240.948 256.188 238.646 257.812 236.75C259.438 234.833 261.365 233.375 263.594 232.375C265.844 231.375 268.312 230.875 271 230.875C273.771 230.875 276.271 231.375 278.5 232.375C280.75 233.375 282.677 234.833 284.281 236.75C285.906 238.646 287.146 240.948 288 243.656C288.875 246.344 289.312 249.396 289.312 252.812ZM283.344 255.688V252.75C283.344 250.042 283.062 247.646 282.5 245.562C281.958 243.479 281.156 241.729 280.094 240.312C279.031 238.896 277.729 237.823 276.188 237.094C274.667 236.365 272.938 236 271 236C269.125 236 267.427 236.365 265.906 237.094C264.406 237.823 263.115 238.896 262.031 240.312C260.969 241.729 260.146 243.479 259.562 245.562C258.979 247.646 258.688 250.042 258.688 252.75V255.688C258.688 258.417 258.979 260.833 259.562 262.938C260.146 265.021 260.979 266.781 262.062 268.219C263.167 269.635 264.469 270.708 265.969 271.438C267.49 272.167 269.188 272.531 271.062 272.531C273.021 272.531 274.76 272.167 276.281 271.438C277.802 270.708 279.083 269.635 280.125 268.219C281.188 266.781 281.99 265.021 282.531 262.938C283.073 260.833 283.344 258.417 283.344 255.688ZM328.062 251.062V255.969H303.438V251.062H328.062ZM304.375 231.5V277H298.344V231.5H304.375ZM333.312 231.5V277H327.312V231.5H333.312ZM372.938 272.094V277H348.844V272.094H372.938ZM350.062 231.5V277H344.031V231.5H350.062ZM369.75 251.062V255.969H348.844V251.062H369.75ZM372.625 231.5V236.438H348.844V231.5H372.625ZM397.188 259.156H385.031V254.25H397.188C399.542 254.25 401.448 253.875 402.906 253.125C404.365 252.375 405.427 251.333 406.094 250C406.781 248.667 407.125 247.146 407.125 245.438C407.125 243.875 406.781 242.406 406.094 241.031C405.427 239.656 404.365 238.552 402.906 237.719C401.448 236.865 399.542 236.438 397.188 236.438H386.438V277H380.406V231.5H397.188C400.625 231.5 403.531 232.094 405.906 233.281C408.281 234.469 410.083 236.115 411.312 238.219C412.542 240.302 413.156 242.688 413.156 245.375C413.156 248.292 412.542 250.781 411.312 252.844C410.083 254.906 408.281 256.479 405.906 257.562C403.531 258.625 400.625 259.156 397.188 259.156ZM455.812 252.812V255.688C455.812 259.104 455.385 262.167 454.531 264.875C453.677 267.583 452.448 269.885 450.844 271.781C449.24 273.677 447.312 275.125 445.062 276.125C442.833 277.125 440.333 277.625 437.562 277.625C434.875 277.625 432.406 277.125 430.156 276.125C427.927 275.125 425.99 273.677 424.344 271.781C422.719 269.885 421.458 267.583 420.562 264.875C419.667 262.167 419.219 259.104 419.219 255.688V252.812C419.219 249.396 419.656 246.344 420.531 243.656C421.427 240.948 422.688 238.646 424.312 236.75C425.938 234.833 427.865 233.375 430.094 232.375C432.344 231.375 434.812 230.875 437.5 230.875C440.271 230.875 442.771 231.375 445 232.375C447.25 233.375 449.177 234.833 450.781 236.75C452.406 238.646 453.646 240.948 454.5 243.656C455.375 246.344 455.812 249.396 455.812 252.812ZM449.844 255.688V252.75C449.844 250.042 449.562 247.646 449 245.562C448.458 243.479 447.656 241.729 446.594 240.312C445.531 238.896 444.229 237.823 442.688 237.094C441.167 236.365 439.438 236 437.5 236C435.625 236 433.927 236.365 432.406 237.094C430.906 237.823 429.615 238.896 428.531 240.312C427.469 241.729 426.646 243.479 426.062 245.562C425.479 247.646 425.188 250.042 425.188 252.75V255.688C425.188 258.417 425.479 260.833 426.062 262.938C426.646 265.021 427.479 266.781 428.562 268.219C429.667 269.635 430.969 270.708 432.469 271.438C433.99 272.167 435.688 272.531 437.562 272.531C439.521 272.531 441.26 272.167 442.781 271.438C444.302 270.708 445.583 269.635 446.625 268.219C447.688 266.781 448.49 265.021 449.031 262.938C449.573 260.833 449.844 258.417 449.844 255.688ZM466.75 231.5H472.594L487.5 268.594L502.375 231.5H508.25L489.75 277H485.188L466.75 231.5ZM464.844 231.5H470L470.844 259.25V277H464.844V231.5ZM504.969 231.5H510.125V277H504.125V259.25L504.969 231.5Z" fill="white"/>
</g>
<defs>
<filter id="filter0_d_5_131" x="7.28125" y="226.875" width="510.844" height="62.75" filterUnits="userSpaceOnUse" color-interpolation-filters="sRGB">
<feFlood flood-opacity="0" result="BackgroundImageFix"/>
<feColorMatrix in="SourceAlpha" type="matrix" values="0 0 0 0 0 0 0 0 0 0 0 0 0 0 0 0 0 0 127 0" result="hardAlpha"/>
<feOffset dy="4"/>
<feGaussianBlur stdDeviation="4"/>
<feComposite in2="hardAlpha" operator="out"/>
<feColorMatrix type="matrix" values="0 0 0 0 0 0 0 0 0 0 0 0 0 0 0 0 0 0 0.25 0"/>
<feBlend mode="normal" in2="BackgroundImageFix" result="effect1_dropShadow_5_131"/>
<feBlend mode="normal" in="SourceGraphic" in2="effect1_dropShadow_5_131" result="shape"/>
</filter>
</defs>
</svg>
